<?xml version="1.0" encoding="UTF-8"?>
<svg id="Capa_1" data-name="Capa 1" xmlns="http://www.w3.org/2000/svg" viewBox="0 0 296.47 296.48">
  <path d="M148.24,0C66.37,0,0,66.37,0,148.24s66.37,148.24,148.24,148.24,148.23-66.37,148.23-148.24S230.1,0,148.24,0ZM241.74,241.74c-24.98,24.98-58.18,38.73-93.5,38.73s-68.53-13.76-93.51-38.73c-24.98-24.98-38.73-58.18-38.73-93.51s13.76-68.53,38.73-93.51c24.98-24.98,58.18-38.73,93.51-38.73s68.53,13.76,93.5,38.73c24.98,24.98,38.73,58.19,38.73,93.51s-13.75,68.53-38.73,93.51h0Z"/>
  <g>
    <path d="M123.34,108.77c.68-.97,1.02-2.12,1.02-3.43s-.34-2.54-1.02-3.54c-.68-1-1.68-1.5-2.99-1.5h-3.06v9.93h3.06c1.31,0,2.31-.49,2.99-1.46Z"/>
    <path d="M120.82,118.8h-3.54v11.83h3.54c1.18,0,2.22-.49,3.13-1.46.91-.97,1.36-2.48,1.36-4.52,0-1.9-.45-3.35-1.36-4.35-.91-1-1.95-1.5-3.13-1.5Z"/>
    <path d="M84.34,186.8h-3.54v11.83h3.54c1.18,0,2.22-.49,3.13-1.46.91-.97,1.36-2.48,1.36-4.52,0-1.9-.45-3.35-1.36-4.35-.91-1-1.95-1.5-3.13-1.5Z"/>
    <path d="M86.86,176.77c.68-.97,1.02-2.12,1.02-3.43s-.34-2.54-1.02-3.54c-.68-1-1.68-1.5-2.99-1.5h-3.06v9.93h3.06c1.31,0,2.31-.49,2.99-1.46Z"/>
    <path d="M215.96,170.95c-.39-1.09-.94-1.8-1.67-2.14-.73-.34-1.7-.51-2.92-.51h-2.52v30.33h2.52c1.22,0,2.2-.17,2.92-.51.72-.34,1.28-1.05,1.67-2.14.38-1.09.63-2.63.75-4.62.11-1.99.17-4.62.17-7.89s-.06-5.89-.17-7.89c-.11-1.99-.36-3.54-.75-4.62Z"/>
    <path d="M148.23,32.99c-63.74,0-115.4,51.67-115.4,115.4s51.67,115.4,115.4,115.4,115.4-51.67,115.4-115.4-51.66-115.4-115.4-115.4ZM101.07,199.17c-.54,1.77-1.39,3.29-2.55,4.56-1.16,1.27-2.66,2.26-4.52,2.96-1.86.7-4.1,1.05-6.73,1.05h-19.11v-48.55h19.11c4.53,0,7.88,1.1,10.03,3.3,2.15,2.2,3.23,5.13,3.23,8.81,0,1.27-.15,2.51-.44,3.71-.3,1.2-.75,2.29-1.36,3.26-.61.98-1.39,1.8-2.35,2.48-.95.68-2.11,1.16-3.47,1.43v.14c1.59.14,2.95.56,4.08,1.26,1.13.7,2.06,1.58,2.79,2.62.72,1.04,1.26,2.19,1.6,3.43.34,1.25.51,2.51.51,3.77,0,2.09-.27,4.01-.82,5.78ZM135,207.74h-28.22v-48.55h12.65v38.22h15.57v10.34ZM135,135.73c-1.16,1.27-2.66,2.26-4.52,2.96-1.86.7-4.1,1.05-6.73,1.05h-19.11v-48.55h19.11c4.53,0,7.88,1.1,10.03,3.3,2.15,2.2,3.23,5.13,3.23,8.81,0,1.27-.15,2.51-.44,3.71-.3,1.2-.75,2.29-1.36,3.26-.61.98-1.39,1.8-2.35,2.48-.95.68-2.11,1.16-3.47,1.43v.14c1.59.14,2.95.56,4.08,1.26,1.13.7,2.06,1.58,2.79,2.62.72,1.04,1.26,2.19,1.6,3.43.34,1.25.51,2.51.51,3.77,0,2.09-.27,4.01-.82,5.78s-1.39,3.29-2.55,4.56ZM150.44,207.74h-12.65v-48.55h12.65v48.55ZM155.44,139.74h-12.65v-48.55h12.65v48.55ZM190.22,207.74h-13.87l-8.43-29.99h-.14v29.99h-11.83v-48.55h14.14l8.16,29.92h.14v-29.92h11.83v48.55ZM173.32,123.59c.09,2.15.28,3.87.58,5.13.29,1.27.72,2.15,1.29,2.65.57.5,1.33.75,2.28.75.68,0,1.28-.14,1.8-.41.52-.27.96-.78,1.33-1.53.36-.75.65-1.79.85-3.13.2-1.34.31-3.05.31-5.13h-4.49v-8.57h16.32v26.38h-8.57l-.27-4.28h-.14c-.41,1.04-.99,1.9-1.73,2.58-.75.68-1.59,1.19-2.52,1.53-.93.34-1.93.58-2.99.71-1.07.14-2.14.2-3.23.2-3.22,0-5.76-.53-7.62-1.6-1.86-1.06-3.26-2.66-4.22-4.79-.95-2.13-1.55-4.76-1.8-7.89-.25-3.13-.37-6.71-.37-10.74s.24-7.68.71-10.81c.48-3.13,1.38-5.76,2.72-7.89,1.34-2.13,3.18-3.75,5.54-4.86,2.36-1.11,5.39-1.67,9.11-1.67,2.22,0,4.27.3,6.15.88,1.88.59,3.5,1.54,4.86,2.86,1.36,1.32,2.42,3,3.2,5.07.77,2.06,1.16,4.57,1.16,7.51h-12.24c0-2.58-.23-4.46-.68-5.64-.45-1.4-1.43-2.11-2.92-2.11-1.04,0-1.87.25-2.48.75-.61.5-1.07,1.38-1.36,2.65-.3,1.27-.49,2.98-.58,5.13-.09,2.15-.14,4.86-.14,8.13s.04,5.97.14,8.13ZM229.59,192.61c-.23,2.92-.85,5.51-1.87,7.75s-2.55,4.04-4.59,5.37c-2.04,1.34-4.9,2.01-8.57,2.01h-18.36v-48.55h18.36c3.67,0,6.53.67,8.57,2.01,2.04,1.34,3.57,3.13,4.59,5.37s1.64,4.83,1.87,7.75c.23,2.92.34,5.97.34,9.15s-.11,6.22-.34,9.15Z"/>
  </g>
</svg>