<?xml version="1.0" encoding="UTF-8"?>
<svg id="Capa_1" data-name="Capa 1" xmlns="http://www.w3.org/2000/svg" viewBox="0 0 296.47 296.48">
  <path d="M148.24,0C66.37,0,0,66.37,0,148.24s66.37,148.24,148.24,148.24,148.23-66.37,148.23-148.24S230.1,0,148.24,0ZM241.74,241.74c-24.98,24.98-58.18,38.73-93.5,38.73s-68.53-13.76-93.51-38.73c-24.98-24.98-38.73-58.18-38.73-93.51s13.76-68.53,38.73-93.51c24.98-24.98,58.18-38.73,93.51-38.73s68.53,13.76,93.5,38.73c24.98,24.98,38.73,58.19,38.73,93.51s-13.75,68.53-38.73,93.51h0Z"/>
  <path d="M234.97,132.04h-2.45v11.42h2.52c1.81,0,3.15-.53,4.01-1.6s1.29-2.46,1.29-4.18c0-2.04-.42-3.49-1.26-4.35s-2.21-1.29-4.11-1.29Z"/>
  <path d="M63.3,134.69c-.39-1.09-.94-1.8-1.67-2.14-.73-.34-1.7-.51-2.92-.51h-2.52v30.33h2.52c1.22,0,2.2-.17,2.92-.51.72-.34,1.28-1.05,1.67-2.14.38-1.09.63-2.63.75-4.62.11-1.99.17-4.62.17-7.89s-.06-5.89-.17-7.89c-.11-1.99-.36-3.54-.75-4.62Z"/>
  <polygon points="132.42 132.86 128.96 153.46 136.03 153.46 132.56 132.86 132.42 132.86"/>
  <path d="M148.5,32.83c-63.74,0-115.4,51.67-115.4,115.4s51.67,115.4,115.4,115.4,115.4-51.67,115.4-115.4-51.66-115.4-115.4-115.4ZM76.94,156.35c-.23,2.92-.85,5.51-1.87,7.75-1.02,2.24-2.55,4.04-4.59,5.37-2.04,1.34-4.9,2.01-8.57,2.01h-18.36v-48.55h18.36c3.67,0,6.53.67,8.57,2.01,2.04,1.34,3.57,3.13,4.59,5.37,1.02,2.24,1.64,4.83,1.87,7.75s.34,5.97.34,9.15-.11,6.22-.34,9.15ZM111.96,171.48h-29.38v-48.55h28.76v10.34h-16.12v8.3h15.1v9.93h-15.1v9.66h16.73v10.34ZM138.82,171.48l-1.29-8.5h-10.06l-1.29,8.5h-13.26l11.63-48.55h15.91l11.83,48.55h-13.46ZM182.61,171.48h-28.22v-48.55h12.65v38.22h15.57v10.34ZM215.25,171.48h-29.38v-48.55h28.76v10.34h-16.12v8.3h15.1v9.93h-15.1v9.66h16.73v10.34ZM241.23,171.48c-.32-.63-.56-1.38-.71-2.24-.16-.86-.27-1.72-.34-2.58-.07-.86-.11-1.69-.14-2.48-.02-.79-.03-1.44-.03-1.94v-3.26c0-1.36-.07-2.49-.2-3.4-.14-.91-.37-1.62-.71-2.14-.34-.52-.77-.88-1.29-1.09-.52-.2-1.17-.31-1.94-.31h-3.33v19.45h-12.65v-48.55h19.79c2.4,0,4.45.32,6.15.95,1.7.63,3.08,1.53,4.15,2.69,1.06,1.16,1.84,2.53,2.31,4.11.48,1.59.71,3.31.71,5.17,0,3.26-.66,5.89-1.97,7.89-1.32,2-3.42,3.22-6.32,3.67v.14c3.04.27,5.12,1.34,6.26,3.2,1.13,1.86,1.7,4.42,1.7,7.68v6.12c0,.68.02,1.33.07,1.94.04.61.11,1.17.2,1.67.09.5.2.88.34,1.16.18.27.36.53.54.78.18.25.48.49.88.71v.68h-13.46Z"/>
</svg>