<?xml version="1.0" encoding="UTF-8"?>
<svg id="Capa_1" data-name="Capa 1" xmlns="http://www.w3.org/2000/svg" viewBox="0 0 296.47 296.48">
  <path d="M148.24,0C66.37,0,0,66.37,0,148.24s66.37,148.24,148.24,148.24,148.23-66.37,148.23-148.24S230.1,0,148.24,0ZM241.74,241.74c-24.98,24.98-58.18,38.73-93.5,38.73s-68.53-13.76-93.51-38.73c-24.98-24.98-38.73-58.18-38.73-93.51s13.76-68.53,38.73-93.51c24.98-24.98,58.18-38.73,93.51-38.73s68.53,13.76,93.5,38.73c24.98,24.98,38.73,58.19,38.73,93.51s-13.75,68.53-38.73,93.51h0Z"/>
  <g>
    <path d="M215.96,170.95c-.39-1.09-.94-1.8-1.67-2.14-.73-.34-1.7-.51-2.92-.51h-2.52v30.33h2.52c1.22,0,2.2-.17,2.92-.51.72-.34,1.28-1.05,1.67-2.14.38-1.09.63-2.63.75-4.62.11-1.99.17-4.62.17-7.89s-.06-5.89-.17-7.89c-.11-1.99-.36-3.54-.75-4.62Z"/>
    <polygon points="161.11 101.12 160.98 101.12 157.51 121.72 164.58 121.72 161.11 101.12"/>
    <path d="M84.34,186.8h-3.54v11.83h3.54c1.18,0,2.22-.49,3.13-1.46.91-.97,1.36-2.48,1.36-4.52,0-1.9-.45-3.35-1.36-4.35-.91-1-1.95-1.5-3.13-1.5Z"/>
    <path d="M86.86,176.77c.68-.97,1.02-2.12,1.02-3.43s-.34-2.54-1.02-3.54c-.68-1-1.68-1.5-2.99-1.5h-3.06v9.93h3.06c1.31,0,2.31-.49,2.99-1.46Z"/>
    <path d="M148.23,32.99c-63.74,0-115.4,51.67-115.4,115.4s51.67,115.4,115.4,115.4,115.4-51.67,115.4-115.4-51.66-115.4-115.4-115.4ZM182.94,91.19h12.65v38.22h15.57v10.34h-28.22v-48.55ZM64.93,139.84c-2.02-.43-3.72-1.18-5.1-2.24-1.38-1.06-2.44-2.46-3.16-4.18-.73-1.72-1.09-3.85-1.09-6.39v-1.7h12.24v1.16c0,2.09.38,3.55,1.16,4.39.77.84,1.77,1.26,2.99,1.26,1.31,0,2.32-.45,3.03-1.36.7-.91,1.05-2.02,1.05-3.33,0-1.59-.49-2.84-1.46-3.77-.98-.93-2.2-1.72-3.67-2.38-1.47-.66-3.07-1.33-4.79-2.01-1.72-.68-3.32-1.56-4.79-2.65-1.47-1.09-2.7-2.52-3.67-4.28-.97-1.77-1.46-4.08-1.46-6.94,0-4.94,1.31-8.7,3.94-11.29,2.63-2.58,6.62-3.88,11.97-3.88s9.53,1.19,12,3.57,3.71,6.18,3.71,11.39h-11.83v-1.16c0-1.45-.29-2.69-.88-3.71-.59-1.02-1.5-1.53-2.72-1.53-1.36,0-2.36.44-2.99,1.33-.64.88-.95,1.87-.95,2.96,0,1.59.51,2.85,1.53,3.77,1.02.93,2.3,1.73,3.84,2.41,1.54.68,3.2,1.37,4.96,2.07,1.77.7,3.42,1.62,4.96,2.75,1.54,1.13,2.82,2.62,3.84,4.45,1.02,1.84,1.53,4.23,1.53,7.17,0,5.17-1.47,8.92-4.42,11.25-2.95,2.34-7.21,3.5-12.78,3.5-2.63,0-4.95-.22-6.97-.65ZM101.07,199.17c-.54,1.77-1.39,3.29-2.55,4.56-1.16,1.27-2.66,2.26-4.52,2.96-1.86.7-4.1,1.05-6.73,1.05h-19.11v-48.55h19.11c4.53,0,7.88,1.1,10.03,3.3,2.15,2.2,3.23,5.13,3.23,8.81,0,1.27-.15,2.51-.44,3.71-.29,1.2-.75,2.29-1.36,3.26-.61.98-1.39,1.8-2.35,2.48-.95.68-2.11,1.16-3.47,1.43v.14c1.59.14,2.95.56,4.08,1.26,1.13.7,2.06,1.58,2.79,2.62.72,1.04,1.26,2.19,1.6,3.43.34,1.25.51,2.51.51,3.77,0,2.09-.27,4.01-.82,5.78ZM104.95,103.56v36.18h-11.83v-48.55h18.09l5.1,28.76h.14l5.1-28.76h18.09v48.55h-11.83v-36.18h-.14l-6.73,36.18h-9.11l-6.73-36.18h-.14ZM135,207.74h-28.22v-48.55h12.65v38.22h15.57v10.34ZM150.44,207.74h-12.65v-48.55h12.65v48.55ZM141.46,139.74l11.63-48.55h15.91l11.83,48.55h-13.46l-1.29-8.5h-10.06l-1.29,8.5h-13.26ZM190.22,207.74h-13.87l-8.43-29.99h-.14v29.99h-11.83v-48.55h14.14l8.16,29.92h.14v-29.92h11.83v48.55ZM229.59,192.61c-.23,2.92-.85,5.51-1.87,7.75s-2.55,4.04-4.59,5.37c-2.04,1.34-4.9,2.01-8.57,2.01h-18.36v-48.55h18.36c3.67,0,6.53.67,8.57,2.01,2.04,1.34,3.57,3.13,4.59,5.37s1.64,4.83,1.87,7.75c.23,2.92.34,5.97.34,9.15s-.11,6.22-.34,9.15ZM214.43,139.74v-48.55h12.65v38.22h15.57v10.34h-28.22Z"/>
  </g>
</svg>